<svg id="visual" viewBox="0 0 960 600" width="960" height="600" xmlns="http://www.w3.org/2000/svg" xmlns:xlink="http://www.w3.org/1999/xlink" version="1.1"><rect x="0" y="0" width="960" height="600" fill="#00ADB5"></rect><path d="M0 439L12.3 439.5C24.7 440 49.3 441 74 436.3C98.7 431.7 123.3 421.3 148 417.7C172.7 414 197.3 417 221.8 416.5C246.3 416 270.7 412 295.2 411.8C319.7 411.7 344.3 415.3 369 418.5C393.7 421.7 418.3 424.3 443 427C467.7 429.7 492.3 432.3 517 433.3C541.7 434.3 566.3 433.7 591 430.7C615.7 427.7 640.3 422.3 664.8 423.5C689.3 424.7 713.7 432.3 738.2 432.5C762.7 432.7 787.3 425.3 812 420.7C836.7 416 861.3 414 886 414.7C910.7 415.3 935.3 418.7 947.7 420.3L960 422L960 601L947.7 601C935.3 601 910.7 601 886 601C861.3 601 836.7 601 812 601C787.3 601 762.7 601 738.2 601C713.7 601 689.3 601 664.8 601C640.3 601 615.7 601 591 601C566.3 601 541.7 601 517 601C492.3 601 467.7 601 443 601C418.3 601 393.7 601 369 601C344.3 601 319.7 601 295.2 601C270.7 601 246.3 601 221.8 601C197.3 601 172.7 601 148 601C123.3 601 98.7 601 74 601C49.3 601 24.7 601 12.3 601L0 601Z" fill="#00adb5"></path><path d="M0 461L12.3 459.3C24.7 457.7 49.3 454.3 74 452.5C98.7 450.7 123.3 450.3 148 453.8C172.7 457.3 197.3 464.7 221.8 468.2C246.3 471.7 270.7 471.3 295.2 468.3C319.7 465.3 344.3 459.7 369 457.2C393.7 454.7 418.3 455.3 443 457.5C467.7 459.7 492.3 463.3 517 462.7C541.7 462 566.3 457 591 456.7C615.7 456.3 640.3 460.7 664.8 460.2C689.3 459.7 713.7 454.3 738.2 454.8C762.7 455.3 787.3 461.7 812 465.2C836.7 468.7 861.3 469.3 886 467.5C910.7 465.7 935.3 461.3 947.7 459.2L960 457L960 601L947.7 601C935.3 601 910.7 601 886 601C861.3 601 836.7 601 812 601C787.3 601 762.7 601 738.2 601C713.7 601 689.3 601 664.8 601C640.3 601 615.7 601 591 601C566.3 601 541.7 601 517 601C492.3 601 467.7 601 443 601C418.3 601 393.7 601 369 601C344.3 601 319.7 601 295.2 601C270.7 601 246.3 601 221.8 601C197.3 601 172.7 601 148 601C123.3 601 98.7 601 74 601C49.3 601 24.7 601 12.3 601L0 601Z" fill="#0089a1"></path><path d="M0 488L12.3 490.5C24.7 493 49.3 498 74 497.8C98.7 497.7 123.3 492.3 148 492.7C172.7 493 197.3 499 221.8 497.2C246.3 495.3 270.7 485.7 295.2 482.7C319.7 479.7 344.3 483.3 369 484C393.7 484.7 418.3 482.3 443 480.5C467.7 478.7 492.3 477.3 517 480.3C541.7 483.3 566.3 490.7 591 495.5C615.7 500.3 640.3 502.7 664.8 502.7C689.3 502.7 713.7 500.3 738.2 496.8C762.7 493.3 787.3 488.7 812 485C836.7 481.3 861.3 478.7 886 478C910.7 477.3 935.3 478.7 947.7 479.3L960 480L960 601L947.7 601C935.3 601 910.7 601 886 601C861.3 601 836.7 601 812 601C787.3 601 762.7 601 738.2 601C713.7 601 689.3 601 664.8 601C640.3 601 615.7 601 591 601C566.3 601 541.7 601 517 601C492.3 601 467.7 601 443 601C418.3 601 393.7 601 369 601C344.3 601 319.7 601 295.2 601C270.7 601 246.3 601 221.8 601C197.3 601 172.7 601 148 601C123.3 601 98.7 601 74 601C49.3 601 24.7 601 12.3 601L0 601Z" fill="#1d6784"></path><path d="M0 516L12.3 515.5C24.7 515 49.3 514 74 513.5C98.7 513 123.3 513 148 514.2C172.7 515.3 197.3 517.7 221.8 520.2C246.3 522.7 270.7 525.3 295.2 526.8C319.7 528.3 344.3 528.7 369 530.3C393.7 532 418.3 535 443 536.2C467.7 537.3 492.3 536.7 517 534C541.7 531.3 566.3 526.7 591 524C615.7 521.3 640.3 520.7 664.8 521.5C689.3 522.3 713.7 524.7 738.2 527C762.7 529.3 787.3 531.7 812 533.3C836.7 535 861.3 536 886 534.7C910.7 533.3 935.3 529.7 947.7 527.8L960 526L960 601L947.7 601C935.3 601 910.7 601 886 601C861.3 601 836.7 601 812 601C787.3 601 762.7 601 738.2 601C713.7 601 689.3 601 664.8 601C640.3 601 615.7 601 591 601C566.3 601 541.7 601 517 601C492.3 601 467.7 601 443 601C418.3 601 393.7 601 369 601C344.3 601 319.7 601 295.2 601C270.7 601 246.3 601 221.8 601C197.3 601 172.7 601 148 601C123.3 601 98.7 601 74 601C49.3 601 24.7 601 12.3 601L0 601Z" fill="#264762"></path><path d="M0 547L12.3 549.7C24.7 552.3 49.3 557.7 74 559.5C98.7 561.3 123.3 559.7 148 557.3C172.7 555 197.3 552 221.8 553.7C246.3 555.3 270.7 561.7 295.2 564.3C319.7 567 344.3 566 369 565.2C393.7 564.3 418.3 563.7 443 562.2C467.7 560.7 492.3 558.3 517 557.2C541.7 556 566.3 556 591 558.3C615.7 560.7 640.3 565.3 664.8 565.2C689.3 565 713.7 560 738.2 560C762.7 560 787.3 565 812 564.2C836.7 563.3 861.3 556.7 886 555.5C910.7 554.3 935.3 558.7 947.7 560.8L960 563L960 601L947.7 601C935.3 601 910.7 601 886 601C861.3 601 836.7 601 812 601C787.3 601 762.7 601 738.2 601C713.7 601 689.3 601 664.8 601C640.3 601 615.7 601 591 601C566.3 601 541.7 601 517 601C492.3 601 467.7 601 443 601C418.3 601 393.7 601 369 601C344.3 601 319.7 601 295.2 601C270.7 601 246.3 601 221.8 601C197.3 601 172.7 601 148 601C123.3 601 98.7 601 74 601C49.3 601 24.7 601 12.3 601L0 601Z" fill="#212a3e"></path></svg>