<svg id="visual" viewBox="0 0 960 600" width="960" height="600" xmlns="http://www.w3.org/2000/svg" xmlns:xlink="http://www.w3.org/1999/xlink" version="1.1"><rect x="0" y="0" width="960" height="600" fill="#212A3E"></rect><path d="M0 407L12.3 409.5C24.7 412 49.3 417 74 419.8C98.7 422.7 123.3 423.3 148 422C172.7 420.7 197.3 417.3 221.8 414.3C246.3 411.3 270.7 408.7 295.2 407.8C319.7 407 344.3 408 369 413.2C393.7 418.3 418.3 427.7 443 426.8C467.7 426 492.3 415 517 413.2C541.7 411.3 566.3 418.7 591 424.8C615.7 431 640.3 436 664.8 433.7C689.3 431.3 713.7 421.7 738.2 420.5C762.7 419.3 787.3 426.7 812 429.8C836.7 433 861.3 432 886 430C910.7 428 935.3 425 947.7 423.5L960 422L960 601L947.7 601C935.3 601 910.7 601 886 601C861.3 601 836.7 601 812 601C787.3 601 762.7 601 738.2 601C713.7 601 689.3 601 664.8 601C640.3 601 615.7 601 591 601C566.3 601 541.7 601 517 601C492.3 601 467.7 601 443 601C418.3 601 393.7 601 369 601C344.3 601 319.7 601 295.2 601C270.7 601 246.3 601 221.8 601C197.3 601 172.7 601 148 601C123.3 601 98.7 601 74 601C49.3 601 24.7 601 12.3 601L0 601Z" fill="#2a354c"></path><path d="M0 469L12.3 465.8C24.7 462.7 49.3 456.3 74 455.7C98.7 455 123.3 460 148 459.7C172.7 459.3 197.3 453.7 221.8 450C246.3 446.3 270.7 444.7 295.2 447.8C319.7 451 344.3 459 369 460.5C393.7 462 418.3 457 443 454.5C467.7 452 492.3 452 517 453.2C541.7 454.3 566.3 456.7 591 455C615.7 453.3 640.3 447.7 664.8 448.8C689.3 450 713.7 458 738.2 463.3C762.7 468.7 787.3 471.3 812 472.2C836.7 473 861.3 472 886 472C910.7 472 935.3 473 947.7 473.5L960 474L960 601L947.7 601C935.3 601 910.7 601 886 601C861.3 601 836.7 601 812 601C787.3 601 762.7 601 738.2 601C713.7 601 689.3 601 664.8 601C640.3 601 615.7 601 591 601C566.3 601 541.7 601 517 601C492.3 601 467.7 601 443 601C418.3 601 393.7 601 369 601C344.3 601 319.7 601 295.2 601C270.7 601 246.3 601 221.8 601C197.3 601 172.7 601 148 601C123.3 601 98.7 601 74 601C49.3 601 24.7 601 12.3 601L0 601Z" fill="#313e59"></path><path d="M0 505L12.3 501.2C24.7 497.3 49.3 489.7 74 487.2C98.7 484.7 123.3 487.3 148 487.7C172.7 488 197.3 486 221.8 487.2C246.3 488.3 270.7 492.7 295.2 493.7C319.7 494.7 344.3 492.3 369 493C393.7 493.7 418.3 497.3 443 499.2C467.7 501 492.3 501 517 500.7C541.7 500.3 566.3 499.7 591 496C615.7 492.3 640.3 485.7 664.8 486.2C689.3 486.7 713.7 494.3 738.2 494C762.7 493.7 787.3 485.3 812 481.8C836.7 478.3 861.3 479.7 886 480.3C910.7 481 935.3 481 947.7 481L960 481L960 601L947.7 601C935.3 601 910.7 601 886 601C861.3 601 836.7 601 812 601C787.3 601 762.7 601 738.2 601C713.7 601 689.3 601 664.8 601C640.3 601 615.7 601 591 601C566.3 601 541.7 601 517 601C492.3 601 467.7 601 443 601C418.3 601 393.7 601 369 601C344.3 601 319.7 601 295.2 601C270.7 601 246.3 601 221.8 601C197.3 601 172.7 601 148 601C123.3 601 98.7 601 74 601C49.3 601 24.7 601 12.3 601L0 601Z" fill="#394867"></path><path d="M0 531L12.3 530.8C24.7 530.7 49.3 530.3 74 528.7C98.7 527 123.3 524 148 525.3C172.7 526.7 197.3 532.3 221.8 534.3C246.3 536.3 270.7 534.7 295.2 531.3C319.7 528 344.3 523 369 520.7C393.7 518.3 418.3 518.7 443 521.3C467.7 524 492.3 529 517 529.7C541.7 530.3 566.3 526.7 591 523C615.7 519.3 640.3 515.7 664.8 514.3C689.3 513 713.7 514 738.2 516C762.7 518 787.3 521 812 522.2C836.7 523.3 861.3 522.7 886 524.8C910.7 527 935.3 532 947.7 534.5L960 537L960 601L947.7 601C935.3 601 910.7 601 886 601C861.3 601 836.7 601 812 601C787.3 601 762.7 601 738.2 601C713.7 601 689.3 601 664.8 601C640.3 601 615.7 601 591 601C566.3 601 541.7 601 517 601C492.3 601 467.7 601 443 601C418.3 601 393.7 601 369 601C344.3 601 319.7 601 295.2 601C270.7 601 246.3 601 221.8 601C197.3 601 172.7 601 148 601C123.3 601 98.7 601 74 601C49.3 601 24.7 601 12.3 601L0 601Z" fill="#4c5a78"></path><path d="M0 558L12.3 558.8C24.7 559.7 49.3 561.3 74 560C98.7 558.7 123.3 554.3 148 555.5C172.7 556.7 197.3 563.3 221.8 563.2C246.3 563 270.7 556 295.2 556C319.7 556 344.3 563 369 563.7C393.7 564.3 418.3 558.7 443 555.7C467.7 552.7 492.3 552.3 517 553.7C541.7 555 566.3 558 591 557.7C615.7 557.3 640.3 553.7 664.8 551.7C689.3 549.7 713.7 549.3 738.2 550.8C762.7 552.3 787.3 555.7 812 555.7C836.7 555.7 861.3 552.3 886 552C910.7 551.7 935.3 554.3 947.7 555.7L960 557L960 601L947.7 601C935.3 601 910.7 601 886 601C861.3 601 836.7 601 812 601C787.3 601 762.7 601 738.2 601C713.7 601 689.3 601 664.8 601C640.3 601 615.7 601 591 601C566.3 601 541.7 601 517 601C492.3 601 467.7 601 443 601C418.3 601 393.7 601 369 601C344.3 601 319.7 601 295.2 601C270.7 601 246.3 601 221.8 601C197.3 601 172.7 601 148 601C123.3 601 98.7 601 74 601C49.3 601 24.7 601 12.3 601L0 601Z" fill="#5f6d8a"></path></svg>