<svg id="visual" viewBox="0 0 960 600" width="960" height="600" xmlns="http://www.w3.org/2000/svg" xmlns:xlink="http://www.w3.org/1999/xlink" version="1.1"><rect x="0" y="0" width="960" height="600" fill="#394867"></rect><path d="M0 437L12.3 436.3C24.7 435.7 49.3 434.3 74 432.3C98.7 430.3 123.3 427.7 148 427C172.7 426.3 197.3 427.7 221.8 427.8C246.3 428 270.7 427 295.2 428.5C319.7 430 344.3 434 369 433.2C393.7 432.3 418.3 426.7 443 424.2C467.7 421.7 492.3 422.3 517 423C541.7 423.7 566.3 424.3 591 426.5C615.7 428.7 640.3 432.3 664.8 431.3C689.3 430.3 713.7 424.7 738.2 422.2C762.7 419.7 787.3 420.3 812 422.5C836.7 424.7 861.3 428.3 886 427.5C910.7 426.7 935.3 421.3 947.7 418.7L960 416L960 601L947.7 601C935.3 601 910.7 601 886 601C861.3 601 836.7 601 812 601C787.3 601 762.7 601 738.2 601C713.7 601 689.3 601 664.8 601C640.3 601 615.7 601 591 601C566.3 601 541.7 601 517 601C492.3 601 467.7 601 443 601C418.3 601 393.7 601 369 601C344.3 601 319.7 601 295.2 601C270.7 601 246.3 601 221.8 601C197.3 601 172.7 601 148 601C123.3 601 98.7 601 74 601C49.3 601 24.7 601 12.3 601L0 601Z" fill="#394867"></path><path d="M0 471L12.3 471.2C24.7 471.3 49.3 471.7 74 471.8C98.7 472 123.3 472 148 471.3C172.7 470.7 197.3 469.3 221.8 467.7C246.3 466 270.7 464 295.2 459.5C319.7 455 344.3 448 369 445.2C393.7 442.3 418.3 443.7 443 445.5C467.7 447.3 492.3 449.7 517 453.2C541.7 456.7 566.3 461.3 591 462.7C615.7 464 640.3 462 664.8 457.7C689.3 453.3 713.7 446.7 738.2 445.2C762.7 443.7 787.3 447.3 812 453C836.7 458.7 861.3 466.3 886 468.8C910.7 471.3 935.3 468.7 947.7 467.3L960 466L960 601L947.7 601C935.3 601 910.7 601 886 601C861.3 601 836.7 601 812 601C787.3 601 762.7 601 738.2 601C713.7 601 689.3 601 664.8 601C640.3 601 615.7 601 591 601C566.3 601 541.7 601 517 601C492.3 601 467.7 601 443 601C418.3 601 393.7 601 369 601C344.3 601 319.7 601 295.2 601C270.7 601 246.3 601 221.8 601C197.3 601 172.7 601 148 601C123.3 601 98.7 601 74 601C49.3 601 24.7 601 12.3 601L0 601Z" fill="#346082"></path><path d="M0 483L12.3 484.7C24.7 486.3 49.3 489.7 74 492.2C98.7 494.7 123.3 496.3 148 494C172.7 491.7 197.3 485.3 221.8 486.7C246.3 488 270.7 497 295.2 500.5C319.7 504 344.3 502 369 498.8C393.7 495.7 418.3 491.3 443 489.7C467.7 488 492.3 489 517 487.8C541.7 486.7 566.3 483.3 591 481.2C615.7 479 640.3 478 664.8 478.2C689.3 478.3 713.7 479.7 738.2 484.2C762.7 488.7 787.3 496.3 812 496.5C836.7 496.7 861.3 489.3 886 486C910.7 482.7 935.3 483.3 947.7 483.7L960 484L960 601L947.7 601C935.3 601 910.7 601 886 601C861.3 601 836.7 601 812 601C787.3 601 762.7 601 738.2 601C713.7 601 689.3 601 664.8 601C640.3 601 615.7 601 591 601C566.3 601 541.7 601 517 601C492.3 601 467.7 601 443 601C418.3 601 393.7 601 369 601C344.3 601 319.7 601 295.2 601C270.7 601 246.3 601 221.8 601C197.3 601 172.7 601 148 601C123.3 601 98.7 601 74 601C49.3 601 24.7 601 12.3 601L0 601Z" fill="#23799a"></path><path d="M0 531L12.3 532C24.7 533 49.3 535 74 534.8C98.7 534.7 123.3 532.3 148 531.7C172.7 531 197.3 532 221.8 531.2C246.3 530.3 270.7 527.7 295.2 526.3C319.7 525 344.3 525 369 526.3C393.7 527.7 418.3 530.3 443 528.3C467.7 526.3 492.3 519.7 517 520.3C541.7 521 566.3 529 591 531.2C615.7 533.3 640.3 529.7 664.8 529.7C689.3 529.7 713.7 533.3 738.2 532.7C762.7 532 787.3 527 812 524.2C836.7 521.3 861.3 520.7 886 523.3C910.7 526 935.3 532 947.7 535L960 538L960 601L947.7 601C935.3 601 910.7 601 886 601C861.3 601 836.7 601 812 601C787.3 601 762.7 601 738.2 601C713.7 601 689.3 601 664.8 601C640.3 601 615.7 601 591 601C566.3 601 541.7 601 517 601C492.3 601 467.7 601 443 601C418.3 601 393.7 601 369 601C344.3 601 319.7 601 295.2 601C270.7 601 246.3 601 221.8 601C197.3 601 172.7 601 148 601C123.3 601 98.7 601 74 601C49.3 601 24.7 601 12.3 601L0 601Z" fill="#0093ab"></path><path d="M0 564L12.3 563.8C24.7 563.7 49.3 563.3 74 560.8C98.7 558.3 123.3 553.7 148 554.8C172.7 556 197.3 563 221.8 564.7C246.3 566.3 270.7 562.7 295.2 562.2C319.7 561.7 344.3 564.3 369 563.5C393.7 562.7 418.3 558.3 443 558.5C467.7 558.7 492.3 563.3 517 563.5C541.7 563.7 566.3 559.3 591 558.5C615.7 557.7 640.3 560.3 664.8 562.2C689.3 564 713.7 565 738.2 562.3C762.7 559.7 787.3 553.3 812 551.7C836.7 550 861.3 553 886 553.3C910.7 553.7 935.3 551.3 947.7 550.2L960 549L960 601L947.7 601C935.3 601 910.7 601 886 601C861.3 601 836.7 601 812 601C787.3 601 762.7 601 738.2 601C713.7 601 689.3 601 664.8 601C640.3 601 615.7 601 591 601C566.3 601 541.7 601 517 601C492.3 601 467.7 601 443 601C418.3 601 393.7 601 369 601C344.3 601 319.7 601 295.2 601C270.7 601 246.3 601 221.8 601C197.3 601 172.7 601 148 601C123.3 601 98.7 601 74 601C49.3 601 24.7 601 12.3 601L0 601Z" fill="#00adb5"></path></svg>